<svg width="40" height="26" viewBox="0 0 40 26" fill="none" xmlns="http://www.w3.org/2000/svg">
<path d="M10.6 0.763999C12.184 0.763999 13.576 1.088 14.776 1.736C15.976 2.384 16.9 3.308 17.548 4.508C18.22 5.684 18.556 7.04 18.556 8.576C18.556 10.088 18.208 11.42 17.512 12.572C16.84 13.724 15.88 14.624 14.632 15.272C13.408 15.896 11.992 16.208 10.384 16.208H5.272C5.152 16.208 5.092 16.268 5.092 16.388V25.568C5.092 25.688 5.044 25.796 4.948 25.892C4.876 25.964 4.78 26 4.66 26H0.448C0.328 26 0.22 25.964 0.124 25.892C0.0520001 25.796 0.0160001 25.688 0.0160001 25.568V1.196C0.0160001 1.076 0.0520001 0.98 0.124 0.907999C0.22 0.811999 0.328 0.763999 0.448 0.763999H10.6ZM9.844 12.14C10.948 12.14 11.836 11.828 12.508 11.204C13.18 10.556 13.516 9.716 13.516 8.684C13.516 7.628 13.18 6.776 12.508 6.128C11.836 5.48 10.948 5.156 9.844 5.156H5.272C5.152 5.156 5.092 5.216 5.092 5.336V11.96C5.092 12.08 5.152 12.14 5.272 12.14H9.844ZM39.1365 4.724C39.1365 4.844 39.0885 4.952 38.9925 5.048C38.9205 5.12 38.8245 5.156 38.7045 5.156H26.9325C26.8125 5.156 26.7525 5.216 26.7525 5.336V10.916C26.7525 11.036 26.8125 11.096 26.9325 11.096H34.6725C34.7925 11.096 34.8885 11.144 34.9605 11.24C35.0565 11.312 35.1045 11.408 35.1045 11.528V15.02C35.1045 15.14 35.0565 15.248 34.9605 15.344C34.8885 15.416 34.7925 15.452 34.6725 15.452H26.9325C26.8125 15.452 26.7525 15.512 26.7525 15.632V25.568C26.7525 25.688 26.7045 25.796 26.6085 25.892C26.5365 25.964 26.4405 26 26.3205 26H22.1085C21.9885 26 21.8805 25.964 21.7845 25.892C21.7125 25.796 21.6765 25.688 21.6765 25.568V1.232C21.6765 1.112 21.7125 1.016 21.7845 0.943999C21.8805 0.847998 21.9885 0.799998 22.1085 0.799998H38.7045C38.8245 0.799998 38.9205 0.847998 38.9925 0.943999C39.0885 1.016 39.1365 1.112 39.1365 1.232V4.724Z" fill="url(#paint0_linear_140_71)"/>
<defs>
<linearGradient id="paint0_linear_140_71" x1="19" y1="-6" x2="19" y2="30" gradientUnits="userSpaceOnUse">
<stop offset="0.575" stop-color="#A665F6"/>
<stop offset="1" stop-color="#396AF1"/>
</linearGradient>
</defs>
</svg>
