<svg width="118" height="28" viewBox="0 0 118 28" fill="none" xmlns="http://www.w3.org/2000/svg">
<path d="M10.6 1.764C12.184 1.764 13.576 2.088 14.776 2.736C15.976 3.384 16.9 4.308 17.548 5.508C18.22 6.684 18.556 8.04 18.556 9.576C18.556 11.088 18.208 12.42 17.512 13.572C16.84 14.724 15.88 15.624 14.632 16.272C13.408 16.896 11.992 17.208 10.384 17.208H5.272C5.152 17.208 5.092 17.268 5.092 17.388V26.568C5.092 26.688 5.044 26.796 4.948 26.892C4.876 26.964 4.78 27 4.66 27H0.448C0.328 27 0.22 26.964 0.124 26.892C0.0520001 26.796 0.0160001 26.688 0.0160001 26.568V2.196C0.0160001 2.076 0.0520001 1.98 0.124 1.908C0.22 1.812 0.328 1.764 0.448 1.764H10.6ZM9.844 13.14C10.948 13.14 11.836 12.828 12.508 12.204C13.18 11.556 13.516 10.716 13.516 9.684C13.516 8.628 13.18 7.776 12.508 7.128C11.836 6.48 10.948 6.156 9.844 6.156H5.272C5.152 6.156 5.092 6.216 5.092 6.336V12.96C5.092 13.08 5.152 13.14 5.272 13.14H9.844ZM28.4698 27.288C26.4538 27.288 24.7258 26.76 23.2858 25.704C21.8458 24.648 20.8618 23.208 20.3338 21.384C19.9978 20.256 19.8298 19.032 19.8298 17.712C19.8298 16.296 19.9978 15.024 20.3338 13.896C20.8858 12.12 21.8818 10.728 23.3218 9.72C24.7618 8.712 26.4898 8.208 28.5058 8.208C30.4738 8.208 32.1538 8.712 33.5458 9.72C34.9378 10.704 35.9218 12.084 36.4978 13.86C36.8818 15.06 37.0738 16.32 37.0738 17.64C37.0738 18.936 36.9058 20.148 36.5698 21.276C36.0418 23.148 35.0578 24.624 33.6178 25.704C32.2018 26.76 30.4858 27.288 28.4698 27.288ZM28.4698 22.932C29.2618 22.932 29.9338 22.692 30.4858 22.212C31.0378 21.732 31.4338 21.072 31.6738 20.232C31.8658 19.464 31.9618 18.624 31.9618 17.712C31.9618 16.704 31.8658 15.852 31.6738 15.156C31.4098 14.34 31.0018 13.704 30.4498 13.248C29.8978 12.792 29.2258 12.564 28.4338 12.564C27.6178 12.564 26.9338 12.792 26.3818 13.248C25.8538 13.704 25.4698 14.34 25.2298 15.156C25.0378 15.732 24.9418 16.584 24.9418 17.712C24.9418 18.792 25.0258 19.632 25.1938 20.232C25.4338 21.072 25.8298 21.732 26.3818 22.212C26.9578 22.692 27.6538 22.932 28.4698 22.932ZM47.7168 27.252C46.1088 27.252 44.7048 27.024 43.5048 26.568C42.3048 26.112 41.3688 25.476 40.6968 24.66C40.0488 23.844 39.7248 22.92 39.7248 21.888V21.528C39.7248 21.408 39.7608 21.312 39.8328 21.24C39.9288 21.144 40.0368 21.096 40.1568 21.096H44.1528C44.2728 21.096 44.3688 21.144 44.4408 21.24C44.5368 21.312 44.5848 21.408 44.5848 21.528V21.564C44.5848 22.092 44.8728 22.548 45.4488 22.932C46.0488 23.292 46.7928 23.472 47.6808 23.472C48.4968 23.472 49.1568 23.316 49.6608 23.004C50.1648 22.668 50.4168 22.26 50.4168 21.78C50.4168 21.348 50.2008 21.024 49.7688 20.808C49.3368 20.592 48.6288 20.364 47.6448 20.124C46.5168 19.836 45.6288 19.56 44.9808 19.296C43.4448 18.768 42.2208 18.12 41.3088 17.352C40.3968 16.584 39.9408 15.48 39.9408 14.04C39.9408 12.264 40.6248 10.86 41.9928 9.828C43.3848 8.772 45.2208 8.244 47.5008 8.244C49.0368 8.244 50.3808 8.496 51.5328 9C52.6848 9.48 53.5728 10.164 54.1968 11.052C54.8448 11.94 55.1688 12.948 55.1688 14.076C55.1688 14.196 55.1208 14.304 55.0248 14.4C54.9528 14.472 54.8568 14.508 54.7368 14.508H50.8848C50.7648 14.508 50.6568 14.472 50.5608 14.4C50.4888 14.304 50.4528 14.196 50.4528 14.076C50.4528 13.548 50.1768 13.104 49.6248 12.744C49.0968 12.384 48.3888 12.204 47.5008 12.204C46.7088 12.204 46.0608 12.348 45.5568 12.636C45.0528 12.924 44.8008 13.32 44.8008 13.824C44.8008 14.304 45.0408 14.664 45.5208 14.904C46.0248 15.144 46.8528 15.396 48.0048 15.66C48.2688 15.732 48.5688 15.816 48.9048 15.912C49.2408 15.984 49.6008 16.08 49.9848 16.2C51.6888 16.704 53.0328 17.352 54.0168 18.144C55.0008 18.936 55.4928 20.088 55.4928 21.6C55.4928 23.376 54.7848 24.768 53.3688 25.776C51.9768 26.76 50.0928 27.252 47.7168 27.252ZM74.7872 15.84C74.9312 16.752 74.9792 17.772 74.9312 18.9C74.9072 19.188 74.7512 19.332 74.4632 19.332H63.3392C63.1952 19.332 63.1472 19.392 63.1952 19.512C63.2672 19.992 63.3992 20.472 63.5912 20.952C64.2152 22.296 65.4872 22.968 67.4072 22.968C68.9432 22.944 70.1552 22.32 71.0432 21.096C71.1392 20.952 71.2472 20.88 71.3672 20.88C71.4392 20.88 71.5232 20.928 71.6192 21.024L74.2112 23.58C74.3312 23.7 74.3912 23.808 74.3912 23.904C74.3912 23.952 74.3432 24.048 74.2472 24.192C73.4552 25.176 72.4352 25.944 71.1872 26.496C69.9392 27.024 68.5712 27.288 67.0832 27.288C65.0192 27.288 63.2672 26.82 61.8272 25.884C60.4112 24.948 59.3912 23.64 58.7672 21.96C58.2632 20.76 58.0112 19.188 58.0112 17.244C58.0112 15.924 58.1912 14.76 58.5512 13.752C59.1032 12.048 60.0632 10.692 61.4312 9.684C62.8232 8.676 64.4672 8.172 66.3632 8.172C68.7632 8.172 70.6832 8.868 72.1232 10.26C73.5872 11.652 74.4752 13.512 74.7872 15.84ZM66.3992 12.564C64.8872 12.564 63.8912 13.272 63.4112 14.688C63.3152 15 63.2312 15.384 63.1592 15.84C63.1592 15.96 63.2192 16.02 63.3392 16.02H69.5672C69.7112 16.02 69.7592 15.96 69.7112 15.84C69.5912 15.144 69.5312 14.808 69.5312 14.832C69.3152 14.112 68.9312 13.56 68.3792 13.176C67.8512 12.768 67.1912 12.564 66.3992 12.564ZM95.8435 5.724C95.8435 5.844 95.7955 5.952 95.6995 6.048C95.6275 6.12 95.5315 6.156 95.4115 6.156H83.6395C83.5195 6.156 83.4595 6.216 83.4595 6.336V11.916C83.4595 12.036 83.5195 12.096 83.6395 12.096H91.3795C91.4995 12.096 91.5955 12.144 91.6675 12.24C91.7635 12.312 91.8115 12.408 91.8115 12.528V16.02C91.8115 16.14 91.7635 16.248 91.6675 16.344C91.5955 16.416 91.4995 16.452 91.3795 16.452H83.6395C83.5195 16.452 83.4595 16.512 83.4595 16.632V26.568C83.4595 26.688 83.4115 26.796 83.3155 26.892C83.2435 26.964 83.1475 27 83.0275 27H78.8155C78.6955 27 78.5875 26.964 78.4915 26.892C78.4195 26.796 78.3835 26.688 78.3835 26.568V2.232C78.3835 2.112 78.4195 2.016 78.4915 1.944C78.5875 1.848 78.6955 1.8 78.8155 1.8H95.4115C95.5315 1.8 95.6275 1.848 95.6995 1.944C95.7955 2.016 95.8435 2.112 95.8435 2.232V5.724ZM100.94 6.408C100.124 6.408 99.44 6.144 98.888 5.616C98.36 5.064 98.096 4.38 98.096 3.564C98.096 2.724 98.36 2.04 98.888 1.512C99.416 0.983999 100.1 0.719999 100.94 0.719999C101.78 0.719999 102.464 0.983999 102.992 1.512C103.52 2.04 103.784 2.724 103.784 3.564C103.784 4.38 103.508 5.064 102.956 5.616C102.428 6.144 101.756 6.408 100.94 6.408ZM98.78 27C98.66 27 98.552 26.964 98.456 26.892C98.384 26.796 98.348 26.688 98.348 26.568V8.892C98.348 8.772 98.384 8.676 98.456 8.604C98.552 8.508 98.66 8.46 98.78 8.46H102.992C103.112 8.46 103.208 8.508 103.28 8.604C103.376 8.676 103.424 8.772 103.424 8.892V26.568C103.424 26.688 103.376 26.796 103.28 26.892C103.208 26.964 103.112 27 102.992 27H98.78ZM118 12.132C118 12.252 117.952 12.36 117.856 12.456C117.784 12.528 117.688 12.564 117.568 12.564H114.112C113.992 12.564 113.932 12.624 113.932 12.744V20.376C113.932 21.168 114.088 21.756 114.4 22.14C114.736 22.524 115.264 22.716 115.984 22.716H117.172C117.292 22.716 117.388 22.764 117.46 22.86C117.556 22.932 117.604 23.028 117.604 23.148V26.568C117.604 26.832 117.46 26.988 117.172 27.036C116.164 27.084 115.444 27.108 115.012 27.108C113.02 27.108 111.532 26.784 110.548 26.136C109.564 25.464 109.06 24.216 109.036 22.392V12.744C109.036 12.624 108.976 12.564 108.856 12.564H106.804C106.684 12.564 106.576 12.528 106.48 12.456C106.408 12.36 106.372 12.252 106.372 12.132V8.928C106.372 8.808 106.408 8.712 106.48 8.64C106.576 8.544 106.684 8.496 106.804 8.496H108.856C108.976 8.496 109.036 8.436 109.036 8.316V4.032C109.036 3.912 109.072 3.816 109.144 3.744C109.24 3.648 109.348 3.6 109.468 3.6H113.5C113.62 3.6 113.716 3.648 113.788 3.744C113.884 3.816 113.932 3.912 113.932 4.032V8.316C113.932 8.436 113.992 8.496 114.112 8.496H117.568C117.688 8.496 117.784 8.544 117.856 8.64C117.952 8.712 118 8.808 118 8.928V12.132Z" fill="url(#paint0_linear_140_69)"/>
<defs>
<linearGradient id="paint0_linear_140_69" x1="59" y1="-3" x2="59" y2="29" gradientUnits="userSpaceOnUse">
<stop offset="0.575" stop-color="#A665F6"/>
<stop offset="1" stop-color="#396AF1"/>
</linearGradient>
</defs>
</svg>
